<svg xmlns="http://www.w3.org/2000/svg" xmlns:xlink="http://www.w3.org/1999/xlink" width="600" zoomAndPan="magnify" viewBox="0 0 450 149.999998" height="200" preserveAspectRatio="xMidYMid meet" version="1.0"><defs><g/><clipPath id="d369cda5dc"><path d="M 26 17 L 105.464844 17 L 105.464844 96 L 26 96 Z M 26 17 " clip-rule="nonzero"/></clipPath><clipPath id="5433f3faa5"><path d="M 45.179688 80.925781 L 38.882812 84.875 C 44.378906 90.183594 51.328125 93.804688 58.839844 95.265625 L 58.570312 87.871094 C 53.628906 86.644531 49.03125 84.257812 45.183594 80.925781 Z M 54.699219 19.019531 C 33.957031 25.398438 22.273438 47.464844 28.65625 68.207031 C 28.816406 68.71875 28.988281 69.21875 29.164062 69.71875 L 35.421875 65.796875 C 30.410156 48.917969 39.945312 31.0625 56.804688 25.875 C 73.769531 20.652344 91.816406 30.210938 97.035156 47.175781 C 102.167969 63.859375 93.003906 81.585938 76.558594 87.125 L 76.828125 94.535156 C 77.167969 94.445312 77.503906 94.355469 77.839844 94.253906 C 98.582031 87.871094 110.265625 65.804688 103.882812 45.0625 C 97.503906 24.324219 75.433594 12.636719 54.695312 19.023438 Z M 54.699219 19.019531 " clip-rule="nonzero"/></clipPath><linearGradient x1="158.385993" gradientTransform="matrix(0.491146, 0, 0, 0.491146, 3.260873, -5.45561)" y1="22.45258" x2="100.362728" gradientUnits="userSpaceOnUse" y2="222.915171" id="f6e01c5c41"><stop stop-opacity="1" stop-color="rgb(75.299072%, 39.99939%, 100%)" offset="0"/><stop stop-opacity="1" stop-color="rgb(75.299072%, 39.99939%, 100%)" offset="0.225665"/><stop stop-opacity="1" stop-color="rgb(75.299072%, 39.99939%, 100%)" offset="0.25"/><stop stop-opacity="1" stop-color="rgb(75.299072%, 39.99939%, 100%)" offset="0.3125"/><stop stop-opacity="1" stop-color="rgb(75.299072%, 39.99939%, 100%)" offset="0.34375"/><stop stop-opacity="1" stop-color="rgb(75.263977%, 40.023804%, 99.983215%)" offset="0.351563"/><stop stop-opacity="1" stop-color="rgb(74.224854%, 40.737915%, 99.530029%)" offset="0.355469"/><stop stop-opacity="1" stop-color="rgb(73.222351%, 41.427612%, 99.092102%)" offset="0.359375"/><stop stop-opacity="1" stop-color="rgb(72.218323%, 42.11731%, 98.652649%)" offset="0.363281"/><stop stop-opacity="1" stop-color="rgb(71.21582%, 42.808533%, 98.214722%)" offset="0.367188"/><stop stop-opacity="1" stop-color="rgb(70.213318%, 43.49823%, 97.776794%)" offset="0.371094"/><stop stop-opacity="1" stop-color="rgb(69.210815%, 44.187927%, 97.338867%)" offset="0.375"/><stop stop-opacity="1" stop-color="rgb(68.206787%, 44.877625%, 96.90094%)" offset="0.378906"/><stop stop-opacity="1" stop-color="rgb(67.204285%, 45.567322%, 96.463013%)" offset="0.382813"/><stop stop-opacity="1" stop-color="rgb(66.200256%, 46.257019%, 96.02356%)" offset="0.386719"/><stop stop-opacity="1" stop-color="rgb(65.197754%, 46.948242%, 95.585632%)" offset="0.390625"/><stop stop-opacity="1" stop-color="rgb(64.195251%, 47.637939%, 95.147705%)" offset="0.394531"/><stop stop-opacity="1" stop-color="rgb(63.192749%, 48.327637%, 94.709778%)" offset="0.398438"/><stop stop-opacity="1" stop-color="rgb(62.188721%, 49.017334%, 94.270325%)" offset="0.402344"/><stop stop-opacity="1" stop-color="rgb(61.186218%, 49.707031%, 93.832397%)" offset="0.40625"/><stop stop-opacity="1" stop-color="rgb(60.18219%, 50.396729%, 93.39447%)" offset="0.410156"/><stop stop-opacity="1" stop-color="rgb(59.179688%, 51.087952%, 92.956543%)" offset="0.414063"/><stop stop-opacity="1" stop-color="rgb(58.177185%, 51.777649%, 92.518616%)" offset="0.417969"/><stop stop-opacity="1" stop-color="rgb(57.174683%, 52.467346%, 92.080688%)" offset="0.421875"/><stop stop-opacity="1" stop-color="rgb(56.170654%, 53.157043%, 91.641235%)" offset="0.425781"/><stop stop-opacity="1" stop-color="rgb(55.168152%, 53.848267%, 91.203308%)" offset="0.429688"/><stop stop-opacity="1" stop-color="rgb(54.165649%, 54.537964%, 90.765381%)" offset="0.433594"/><stop stop-opacity="1" stop-color="rgb(53.163147%, 55.227661%, 90.327454%)" offset="0.4375"/><stop stop-opacity="1" stop-color="rgb(52.159119%, 55.917358%, 89.888%)" offset="0.441406"/><stop stop-opacity="1" stop-color="rgb(51.156616%, 56.607056%, 89.450073%)" offset="0.445313"/><stop stop-opacity="1" stop-color="rgb(50.152588%, 57.296753%, 89.012146%)" offset="0.449219"/><stop stop-opacity="1" stop-color="rgb(49.150085%, 57.987976%, 88.574219%)" offset="0.453125"/><stop stop-opacity="1" stop-color="rgb(48.147583%, 58.677673%, 88.136292%)" offset="0.457031"/><stop stop-opacity="1" stop-color="rgb(47.145081%, 59.367371%, 87.698364%)" offset="0.460938"/><stop stop-opacity="1" stop-color="rgb(46.141052%, 60.057068%, 87.258911%)" offset="0.464844"/><stop stop-opacity="1" stop-color="rgb(45.13855%, 60.746765%, 86.820984%)" offset="0.46875"/><stop stop-opacity="1" stop-color="rgb(44.134521%, 61.436462%, 86.383057%)" offset="0.472656"/><stop stop-opacity="1" stop-color="rgb(43.132019%, 62.127686%, 85.945129%)" offset="0.476562"/><stop stop-opacity="1" stop-color="rgb(42.129517%, 62.817383%, 85.507202%)" offset="0.480469"/><stop stop-opacity="1" stop-color="rgb(41.127014%, 63.50708%, 85.069275%)" offset="0.484375"/><stop stop-opacity="1" stop-color="rgb(40.122986%, 64.196777%, 84.629822%)" offset="0.488281"/><stop stop-opacity="1" stop-color="rgb(39.120483%, 64.886475%, 84.191895%)" offset="0.492188"/><stop stop-opacity="1" stop-color="rgb(38.116455%, 65.576172%, 83.753967%)" offset="0.496094"/><stop stop-opacity="1" stop-color="rgb(37.113953%, 66.267395%, 83.31604%)" offset="0.5"/><stop stop-opacity="1" stop-color="rgb(36.11145%, 66.957092%, 82.876587%)" offset="0.503906"/><stop stop-opacity="1" stop-color="rgb(35.108948%, 67.64679%, 82.43866%)" offset="0.507812"/><stop stop-opacity="1" stop-color="rgb(34.104919%, 68.336487%, 82.000732%)" offset="0.511719"/><stop stop-opacity="1" stop-color="rgb(33.102417%, 69.02771%, 81.562805%)" offset="0.515625"/><stop stop-opacity="1" stop-color="rgb(32.098389%, 69.717407%, 81.124878%)" offset="0.519531"/><stop stop-opacity="1" stop-color="rgb(31.095886%, 70.407104%, 80.686951%)" offset="0.523438"/><stop stop-opacity="1" stop-color="rgb(30.093384%, 71.096802%, 80.247498%)" offset="0.527344"/><stop stop-opacity="1" stop-color="rgb(29.090881%, 71.786499%, 79.80957%)" offset="0.53125"/><stop stop-opacity="1" stop-color="rgb(28.086853%, 72.476196%, 79.371643%)" offset="0.535156"/><stop stop-opacity="1" stop-color="rgb(27.084351%, 73.167419%, 78.933716%)" offset="0.539063"/><stop stop-opacity="1" stop-color="rgb(26.080322%, 73.857117%, 78.494263%)" offset="0.542969"/><stop stop-opacity="1" stop-color="rgb(25.07782%, 74.546814%, 78.056335%)" offset="0.546875"/><stop stop-opacity="1" stop-color="rgb(24.075317%, 75.236511%, 77.618408%)" offset="0.550781"/><stop stop-opacity="1" stop-color="rgb(23.072815%, 75.926208%, 77.180481%)" offset="0.554688"/><stop stop-opacity="1" stop-color="rgb(22.068787%, 76.615906%, 76.742554%)" offset="0.558594"/><stop stop-opacity="1" stop-color="rgb(21.066284%, 77.307129%, 76.304626%)" offset="0.5625"/><stop stop-opacity="1" stop-color="rgb(20.063782%, 77.996826%, 75.865173%)" offset="0.566406"/><stop stop-opacity="1" stop-color="rgb(19.061279%, 78.686523%, 75.427246%)" offset="0.570313"/><stop stop-opacity="1" stop-color="rgb(18.057251%, 79.376221%, 74.989319%)" offset="0.574219"/><stop stop-opacity="1" stop-color="rgb(17.054749%, 80.065918%, 74.551392%)" offset="0.578125"/><stop stop-opacity="1" stop-color="rgb(16.05072%, 80.755615%, 74.111938%)" offset="0.582031"/><stop stop-opacity="1" stop-color="rgb(15.048218%, 81.446838%, 73.674011%)" offset="0.585938"/><stop stop-opacity="1" stop-color="rgb(14.045715%, 82.136536%, 73.236084%)" offset="0.589844"/><stop stop-opacity="1" stop-color="rgb(13.043213%, 82.826233%, 72.798157%)" offset="0.59375"/><stop stop-opacity="1" stop-color="rgb(12.039185%, 83.51593%, 72.360229%)" offset="0.597656"/><stop stop-opacity="1" stop-color="rgb(11.036682%, 84.207153%, 71.922302%)" offset="0.601563"/><stop stop-opacity="1" stop-color="rgb(10.032654%, 84.896851%, 71.482849%)" offset="0.605469"/><stop stop-opacity="1" stop-color="rgb(9.030151%, 85.586548%, 71.044922%)" offset="0.609375"/><stop stop-opacity="1" stop-color="rgb(8.027649%, 86.276245%, 70.606995%)" offset="0.613281"/><stop stop-opacity="1" stop-color="rgb(7.025146%, 86.965942%, 70.169067%)" offset="0.617188"/><stop stop-opacity="1" stop-color="rgb(6.021118%, 87.65564%, 69.729614%)" offset="0.621094"/><stop stop-opacity="1" stop-color="rgb(5.018616%, 88.346863%, 69.291687%)" offset="0.625"/><stop stop-opacity="1" stop-color="rgb(4.014587%, 89.03656%, 68.85376%)" offset="0.628906"/><stop stop-opacity="1" stop-color="rgb(3.012085%, 89.726257%, 68.415833%)" offset="0.632813"/><stop stop-opacity="1" stop-color="rgb(2.009583%, 90.415955%, 67.977905%)" offset="0.636719"/><stop stop-opacity="1" stop-color="rgb(1.00708%, 91.105652%, 67.539978%)" offset="0.640625"/><stop stop-opacity="1" stop-color="rgb(0.50354%, 91.452026%, 67.318726%)" offset="0.644531"/><stop stop-opacity="1" stop-color="rgb(0%, 91.799927%, 67.098999%)" offset="0.648438"/><stop stop-opacity="1" stop-color="rgb(0%, 91.799927%, 67.098999%)" offset="0.65625"/><stop stop-opacity="1" stop-color="rgb(0%, 91.799927%, 67.098999%)" offset="0.6875"/><stop stop-opacity="1" stop-color="rgb(0%, 91.799927%, 67.098999%)" offset="0.75"/><stop stop-opacity="1" stop-color="rgb(0%, 91.799927%, 67.098999%)" offset="0.774335"/><stop stop-opacity="1" stop-color="rgb(0%, 91.799927%, 67.098999%)" offset="1"/></linearGradient><clipPath id="72ee230630"><path d="M 3.261719 53 L 73 53 L 73 131 L 3.261719 131 Z M 3.261719 53 " clip-rule="nonzero"/></clipPath><clipPath id="ebb4f219d1"><path d="M 70.085938 130.664062 C 69.089844 130.96875 67.988281 130.882812 67.046875 130.378906 L 5.378906 97.722656 C 4.125 97.0625 3.316406 95.769531 3.261719 94.351562 C 3.207031 92.929688 3.925781 91.585938 5.128906 90.832031 L 64.242188 53.753906 C 65.441406 53 66.96875 52.941406 68.21875 53.605469 C 69.472656 54.269531 70.28125 55.558594 70.335938 56.972656 L 72.894531 126.710938 C 72.945312 128.132812 72.234375 129.476562 71.035156 130.226562 C 70.738281 130.414062 70.421875 130.558594 70.097656 130.65625 Z M 17.269531 95.910156 L 61.875 119.527344 C 63.5 120.386719 65.445312 119.167969 65.375 117.332031 L 63.523438 66.894531 C 63.457031 65.058594 61.425781 63.984375 59.871094 64.960938 L 17.117188 91.777344 C 15.558594 92.753906 15.644531 95.046875 17.269531 95.90625 Z M 8.945312 96.910156 Z M 68.054688 59.832031 Z M 68.054688 59.832031 " clip-rule="nonzero"/></clipPath><linearGradient x1="14.640007" gradientTransform="matrix(0.491146, 0, 0, 0.491146, 3.260873, -5.45561)" y1="292.409988" x2="165.015011" gradientUnits="userSpaceOnUse" y2="142.034993" id="aeb8e9a8a5"><stop stop-opacity="1" stop-color="rgb(32.199097%, 44.299316%, 100%)" offset="0"/><stop stop-opacity="1" stop-color="rgb(32.199097%, 44.299316%, 100%)" offset="0.471754"/><stop stop-opacity="1" stop-color="rgb(32.199097%, 44.299316%, 100%)" offset="0.5"/><stop stop-opacity="1" stop-color="rgb(32.199097%, 44.299316%, 100%)" offset="0.528246"/><stop stop-opacity="1" stop-color="rgb(32.199097%, 44.299316%, 100%)" offset="0.53125"/><stop stop-opacity="1" stop-color="rgb(31.958008%, 44.654846%, 99.752808%)" offset="0.535156"/><stop stop-opacity="1" stop-color="rgb(31.716919%, 45.011902%, 99.505615%)" offset="0.539062"/><stop stop-opacity="1" stop-color="rgb(31.317139%, 45.599365%, 99.098206%)" offset="0.542969"/><stop stop-opacity="1" stop-color="rgb(30.918884%, 46.186829%, 98.692322%)" offset="0.546875"/><stop stop-opacity="1" stop-color="rgb(30.52063%, 46.774292%, 98.284912%)" offset="0.550781"/><stop stop-opacity="1" stop-color="rgb(30.122375%, 47.361755%, 97.877502%)" offset="0.554688"/><stop stop-opacity="1" stop-color="rgb(29.724121%, 47.949219%, 97.470093%)" offset="0.558594"/><stop stop-opacity="1" stop-color="rgb(29.325867%, 48.538208%, 97.064209%)" offset="0.5625"/><stop stop-opacity="1" stop-color="rgb(28.927612%, 49.125671%, 96.656799%)" offset="0.566406"/><stop stop-opacity="1" stop-color="rgb(28.529358%, 49.713135%, 96.24939%)" offset="0.570312"/><stop stop-opacity="1" stop-color="rgb(28.131104%, 50.300598%, 95.84198%)" offset="0.574219"/><stop stop-opacity="1" stop-color="rgb(27.732849%, 50.888062%, 95.436096%)" offset="0.578125"/><stop stop-opacity="1" stop-color="rgb(27.334595%, 51.475525%, 95.028687%)" offset="0.582031"/><stop stop-opacity="1" stop-color="rgb(26.93634%, 52.064514%, 94.621277%)" offset="0.585937"/><stop stop-opacity="1" stop-color="rgb(26.53656%, 52.651978%, 94.213867%)" offset="0.589844"/><stop stop-opacity="1" stop-color="rgb(26.138306%, 53.239441%, 93.806458%)" offset="0.59375"/><stop stop-opacity="1" stop-color="rgb(25.740051%, 53.826904%, 93.399048%)" offset="0.597656"/><stop stop-opacity="1" stop-color="rgb(25.341797%, 54.414368%, 92.993164%)" offset="0.601562"/><stop stop-opacity="1" stop-color="rgb(24.943542%, 55.001831%, 92.585754%)" offset="0.605469"/><stop stop-opacity="1" stop-color="rgb(24.545288%, 55.589294%, 92.178345%)" offset="0.609375"/><stop stop-opacity="1" stop-color="rgb(24.147034%, 56.176758%, 91.770935%)" offset="0.613281"/><stop stop-opacity="1" stop-color="rgb(23.748779%, 56.765747%, 91.365051%)" offset="0.617188"/><stop stop-opacity="1" stop-color="rgb(23.350525%, 57.35321%, 90.957642%)" offset="0.621094"/><stop stop-opacity="1" stop-color="rgb(22.952271%, 57.940674%, 90.550232%)" offset="0.625"/><stop stop-opacity="1" stop-color="rgb(22.554016%, 58.528137%, 90.142822%)" offset="0.628906"/><stop stop-opacity="1" stop-color="rgb(22.155762%, 59.115601%, 89.736938%)" offset="0.632812"/><stop stop-opacity="1" stop-color="rgb(21.755981%, 59.703064%, 89.329529%)" offset="0.636719"/><stop stop-opacity="1" stop-color="rgb(21.357727%, 60.290527%, 88.922119%)" offset="0.640625"/><stop stop-opacity="1" stop-color="rgb(20.959473%, 60.877991%, 88.514709%)" offset="0.644531"/><stop stop-opacity="1" stop-color="rgb(20.561218%, 61.46698%, 88.108826%)" offset="0.648438"/><stop stop-opacity="1" stop-color="rgb(20.162964%, 62.054443%, 87.701416%)" offset="0.652344"/><stop stop-opacity="1" stop-color="rgb(19.764709%, 62.641907%, 87.294006%)" offset="0.65625"/><stop stop-opacity="1" stop-color="rgb(19.366455%, 63.22937%, 86.886597%)" offset="0.660156"/><stop stop-opacity="1" stop-color="rgb(18.968201%, 63.816833%, 86.480713%)" offset="0.664063"/><stop stop-opacity="1" stop-color="rgb(18.569946%, 64.404297%, 86.073303%)" offset="0.667969"/><stop stop-opacity="1" stop-color="rgb(18.171692%, 64.993286%, 85.665894%)" offset="0.671875"/><stop stop-opacity="1" stop-color="rgb(17.773438%, 65.58075%, 85.258484%)" offset="0.675781"/><stop stop-opacity="1" stop-color="rgb(17.375183%, 66.168213%, 84.8526%)" offset="0.679688"/><stop stop-opacity="1" stop-color="rgb(16.975403%, 66.755676%, 84.44519%)" offset="0.683594"/><stop stop-opacity="1" stop-color="rgb(16.577148%, 67.34314%, 84.037781%)" offset="0.6875"/><stop stop-opacity="1" stop-color="rgb(16.178894%, 67.930603%, 83.630371%)" offset="0.691406"/><stop stop-opacity="1" stop-color="rgb(15.78064%, 68.518066%, 83.224487%)" offset="0.695312"/><stop stop-opacity="1" stop-color="rgb(15.382385%, 69.10553%, 82.817078%)" offset="0.699219"/><stop stop-opacity="1" stop-color="rgb(14.984131%, 69.694519%, 82.409668%)" offset="0.703125"/><stop stop-opacity="1" stop-color="rgb(14.585876%, 70.281982%, 82.002258%)" offset="0.707031"/><stop stop-opacity="1" stop-color="rgb(14.187622%, 70.869446%, 81.596375%)" offset="0.710938"/><stop stop-opacity="1" stop-color="rgb(13.789368%, 71.456909%, 81.188965%)" offset="0.714844"/><stop stop-opacity="1" stop-color="rgb(13.391113%, 72.044373%, 80.781555%)" offset="0.71875"/><stop stop-opacity="1" stop-color="rgb(12.992859%, 72.631836%, 80.374146%)" offset="0.722656"/><stop stop-opacity="1" stop-color="rgb(12.594604%, 73.220825%, 79.968262%)" offset="0.726562"/><stop stop-opacity="1" stop-color="rgb(12.194824%, 73.808289%, 79.560852%)" offset="0.730469"/><stop stop-opacity="1" stop-color="rgb(11.79657%, 74.395752%, 79.153442%)" offset="0.734375"/><stop stop-opacity="1" stop-color="rgb(11.398315%, 74.983215%, 78.746033%)" offset="0.738281"/><stop stop-opacity="1" stop-color="rgb(11.000061%, 75.570679%, 78.340149%)" offset="0.742188"/><stop stop-opacity="1" stop-color="rgb(10.601807%, 76.158142%, 77.932739%)" offset="0.746094"/><stop stop-opacity="1" stop-color="rgb(10.203552%, 76.745605%, 77.52533%)" offset="0.75"/><stop stop-opacity="1" stop-color="rgb(9.805298%, 77.333069%, 77.11792%)" offset="0.753906"/><stop stop-opacity="1" stop-color="rgb(9.407043%, 77.922058%, 76.712036%)" offset="0.757812"/><stop stop-opacity="1" stop-color="rgb(9.008789%, 78.509521%, 76.304626%)" offset="0.761719"/><stop stop-opacity="1" stop-color="rgb(8.610535%, 79.096985%, 75.897217%)" offset="0.765625"/><stop stop-opacity="1" stop-color="rgb(8.21228%, 79.684448%, 75.489807%)" offset="0.769531"/><stop stop-opacity="1" stop-color="rgb(7.814026%, 80.271912%, 75.083923%)" offset="0.773438"/><stop stop-opacity="1" stop-color="rgb(7.414246%, 80.859375%, 74.676514%)" offset="0.777344"/><stop stop-opacity="1" stop-color="rgb(7.015991%, 81.446838%, 74.269104%)" offset="0.78125"/><stop stop-opacity="1" stop-color="rgb(6.617737%, 82.034302%, 73.861694%)" offset="0.785156"/><stop stop-opacity="1" stop-color="rgb(6.219482%, 82.623291%, 73.455811%)" offset="0.789062"/><stop stop-opacity="1" stop-color="rgb(5.821228%, 83.210754%, 73.048401%)" offset="0.792969"/><stop stop-opacity="1" stop-color="rgb(5.422974%, 83.798218%, 72.640991%)" offset="0.796875"/><stop stop-opacity="1" stop-color="rgb(5.024719%, 84.385681%, 72.233582%)" offset="0.800781"/><stop stop-opacity="1" stop-color="rgb(4.626465%, 84.973145%, 71.826172%)" offset="0.804688"/><stop stop-opacity="1" stop-color="rgb(4.22821%, 85.560608%, 71.418762%)" offset="0.808594"/><stop stop-opacity="1" stop-color="rgb(3.829956%, 86.149597%, 71.012878%)" offset="0.8125"/><stop stop-opacity="1" stop-color="rgb(3.431702%, 86.737061%, 70.605469%)" offset="0.816406"/><stop stop-opacity="1" stop-color="rgb(3.033447%, 87.324524%, 70.198059%)" offset="0.820312"/><stop stop-opacity="1" stop-color="rgb(2.633667%, 87.911987%, 69.790649%)" offset="0.824219"/><stop stop-opacity="1" stop-color="rgb(2.235413%, 88.499451%, 69.384766%)" offset="0.828125"/><stop stop-opacity="1" stop-color="rgb(1.837158%, 89.086914%, 68.977356%)" offset="0.832031"/><stop stop-opacity="1" stop-color="rgb(1.438904%, 89.674377%, 68.569946%)" offset="0.835937"/><stop stop-opacity="1" stop-color="rgb(1.040649%, 90.261841%, 68.162537%)" offset="0.839844"/><stop stop-opacity="1" stop-color="rgb(0.642395%, 90.85083%, 67.756653%)" offset="0.84375"/><stop stop-opacity="1" stop-color="rgb(0.320435%, 91.325378%, 67.427063%)" offset="0.847656"/><stop stop-opacity="1" stop-color="rgb(0%, 91.799927%, 67.098999%)" offset="0.851562"/><stop stop-opacity="1" stop-color="rgb(0%, 91.799927%, 67.098999%)" offset="0.859375"/><stop stop-opacity="1" stop-color="rgb(0%, 91.799927%, 67.098999%)" offset="0.875"/><stop stop-opacity="1" stop-color="rgb(0%, 91.799927%, 67.098999%)" offset="1"/></linearGradient></defs><g clip-path="url(#d369cda5dc)"><g clip-path="url(#5433f3faa5)"><path fill="url(#f6e01c5c41)" d="M 22.273438 12.636719 L 22.273438 95.265625 L 105.464844 95.265625 L 105.464844 12.636719 Z M 22.273438 12.636719 " fill-rule="nonzero"/></g></g><g clip-path="url(#72ee230630)"><g clip-path="url(#ebb4f219d1)"><path fill="url(#aeb8e9a8a5)" d="M 3.261719 52.941406 L 3.261719 130.96875 L 72.945312 130.96875 L 72.945312 52.941406 Z M 3.261719 52.941406 " fill-rule="nonzero"/></g></g><g fill="#ffffff" fill-opacity="1"><g transform="translate(124.329138, 70.770644)"><g><path d="M 23.140625 1.078125 C 19.484375 1.078125 16.140625 0.332031 13.109375 -1.15625 C 10.078125 -2.644531 7.644531 -4.878906 5.8125 -7.859375 C 3.988281 -10.847656 3.078125 -14.523438 3.078125 -18.890625 C 3.078125 -23.316406 3.976562 -27.003906 5.78125 -29.953125 C 7.582031 -32.910156 10.007812 -35.132812 13.0625 -36.625 C 16.125 -38.125 19.484375 -38.875 23.140625 -38.875 C 25.765625 -38.875 28.191406 -38.4375 30.421875 -37.5625 C 32.660156 -36.6875 34.804688 -35.242188 36.859375 -33.234375 L 31.859375 -28.078125 C 30.617188 -29.148438 29.238281 -29.957031 27.71875 -30.5 C 26.207031 -31.039062 24.707031 -31.3125 23.21875 -31.3125 C 20.957031 -31.3125 18.898438 -30.796875 17.046875 -29.765625 C 15.191406 -28.742188 13.722656 -27.304688 12.640625 -25.453125 C 11.566406 -23.597656 11.03125 -21.410156 11.03125 -18.890625 C 11.03125 -16.222656 11.582031 -13.972656 12.6875 -12.140625 C 13.789062 -10.316406 15.265625 -8.941406 17.109375 -8.015625 C 18.960938 -7.085938 20.972656 -6.625 23.140625 -6.625 C 24.785156 -6.625 26.390625 -6.894531 27.953125 -7.4375 C 29.523438 -7.976562 30.925781 -8.894531 32.15625 -10.1875 L 37.5625 -4.859375 C 35.40625 -2.753906 33.15625 -1.238281 30.8125 -0.3125 C 28.46875 0.613281 25.910156 1.078125 23.140625 1.078125 Z M 23.140625 1.078125 "/></g></g></g><g fill="#ffffff" fill-opacity="1"><g transform="translate(161.267424, 70.770644)"><g><path d="M 22.59375 0.84375 C 18.632812 0.84375 15.175781 -0.015625 12.21875 -1.734375 C 9.269531 -3.453125 7 -5.816406 5.40625 -8.828125 C 3.8125 -11.835938 3.015625 -15.21875 3.015625 -18.96875 C 3.015625 -22.675781 3.820312 -26.03125 5.4375 -29.03125 C 7.050781 -32.039062 9.335938 -34.421875 12.296875 -36.171875 C 15.253906 -37.921875 18.6875 -38.796875 22.59375 -38.796875 C 26.5 -38.796875 29.929688 -37.921875 32.890625 -36.171875 C 35.847656 -34.421875 38.160156 -32.039062 39.828125 -29.03125 C 41.503906 -26.03125 42.34375 -22.675781 42.34375 -18.96875 C 42.34375 -15.21875 41.53125 -11.835938 39.90625 -8.828125 C 38.289062 -5.816406 36.003906 -3.453125 33.046875 -1.734375 C 30.085938 -0.015625 26.601562 0.84375 22.59375 0.84375 Z M 22.59375 -6.5625 C 25.0625 -6.5625 27.171875 -7.125 28.921875 -8.25 C 30.671875 -9.382812 32.007812 -10.890625 32.9375 -12.765625 C 33.863281 -14.640625 34.328125 -16.707031 34.328125 -18.96875 C 34.328125 -21.226562 33.835938 -23.296875 32.859375 -25.171875 C 31.878906 -27.054688 30.515625 -28.578125 28.765625 -29.734375 C 27.015625 -30.890625 24.957031 -31.46875 22.59375 -31.46875 C 20.226562 -31.46875 18.171875 -30.890625 16.421875 -29.734375 C 14.679688 -28.578125 13.332031 -27.054688 12.375 -25.171875 C 11.425781 -23.296875 10.953125 -21.226562 10.953125 -18.96875 C 10.953125 -16.707031 11.425781 -14.640625 12.375 -12.765625 C 13.332031 -10.890625 14.679688 -9.382812 16.421875 -8.25 C 18.171875 -7.125 20.226562 -6.5625 22.59375 -6.5625 Z M 22.59375 -6.5625 "/></g></g></g><g fill="#ffffff" fill-opacity="1"><g transform="translate(204.297916, 70.770644)"><g><path d="M 5.703125 0 L 5.703125 -53.984375 L 13.65625 -53.984375 L 13.65625 0 Z M 5.703125 0 "/></g></g></g><g fill="#ffffff" fill-opacity="1"><g transform="translate(221.340125, 70.770644)"><g><path d="M 22.515625 0.765625 C 18.867188 0.765625 15.566406 -0.00390625 12.609375 -1.546875 C 9.648438 -3.085938 7.320312 -5.332031 5.625 -8.28125 C 3.925781 -11.238281 3.078125 -14.828125 3.078125 -19.046875 C 3.078125 -23.367188 3.910156 -27.003906 5.578125 -29.953125 C 7.253906 -32.910156 9.554688 -35.132812 12.484375 -36.625 C 15.421875 -38.125 18.710938 -38.875 22.359375 -38.875 C 23.910156 -38.875 25.554688 -38.628906 27.296875 -38.140625 C 29.046875 -37.648438 30.675781 -36.898438 32.1875 -35.890625 C 33.707031 -34.890625 34.878906 -33.617188 35.703125 -32.078125 L 35.703125 -53.984375 L 43.65625 -53.984375 L 43.65625 0 L 36.171875 0 L 35.703125 -6.015625 C 34.210938 -3.597656 32.269531 -1.863281 29.875 -0.8125 C 27.488281 0.238281 25.035156 0.765625 22.515625 0.765625 Z M 23.0625 -6.625 C 25.269531 -6.625 27.285156 -7.140625 29.109375 -8.171875 C 30.941406 -9.203125 32.410156 -10.65625 33.515625 -12.53125 C 34.617188 -14.40625 35.171875 -16.578125 35.171875 -19.046875 C 35.171875 -21.515625 34.617188 -23.675781 33.515625 -25.53125 C 32.410156 -27.382812 30.941406 -28.820312 29.109375 -29.84375 C 27.285156 -30.875 25.269531 -31.390625 23.0625 -31.390625 C 19.664062 -31.390625 16.8125 -30.296875 14.5 -28.109375 C 12.1875 -25.921875 11.03125 -22.898438 11.03125 -19.046875 C 11.03125 -15.191406 12.1875 -12.15625 14.5 -9.9375 C 16.8125 -7.726562 19.664062 -6.625 23.0625 -6.625 Z M 23.0625 -6.625 "/></g></g></g><g fill="#ffffff" fill-opacity="1"><g transform="translate(124.329138, 132.384907)"><g><path d="M 22.59375 0.84375 C 18.632812 0.84375 15.175781 -0.015625 12.21875 -1.734375 C 9.269531 -3.453125 7 -5.816406 5.40625 -8.828125 C 3.8125 -11.835938 3.015625 -15.21875 3.015625 -18.96875 C 3.015625 -22.675781 3.820312 -26.03125 5.4375 -29.03125 C 7.050781 -32.039062 9.335938 -34.421875 12.296875 -36.171875 C 15.253906 -37.921875 18.6875 -38.796875 22.59375 -38.796875 C 26.5 -38.796875 29.929688 -37.921875 32.890625 -36.171875 C 35.847656 -34.421875 38.160156 -32.039062 39.828125 -29.03125 C 41.503906 -26.03125 42.34375 -22.675781 42.34375 -18.96875 C 42.34375 -15.21875 41.53125 -11.835938 39.90625 -8.828125 C 38.289062 -5.816406 36.003906 -3.453125 33.046875 -1.734375 C 30.085938 -0.015625 26.601562 0.84375 22.59375 0.84375 Z M 22.59375 -6.5625 C 25.0625 -6.5625 27.171875 -7.125 28.921875 -8.25 C 30.671875 -9.382812 32.007812 -10.890625 32.9375 -12.765625 C 33.863281 -14.640625 34.328125 -16.707031 34.328125 -18.96875 C 34.328125 -21.226562 33.835938 -23.296875 32.859375 -25.171875 C 31.878906 -27.054688 30.515625 -28.578125 28.765625 -29.734375 C 27.015625 -30.890625 24.957031 -31.46875 22.59375 -31.46875 C 20.226562 -31.46875 18.171875 -30.890625 16.421875 -29.734375 C 14.679688 -28.578125 13.332031 -27.054688 12.375 -25.171875 C 11.425781 -23.296875 10.953125 -21.226562 10.953125 -18.96875 C 10.953125 -16.707031 11.425781 -14.640625 12.375 -12.765625 C 13.332031 -10.890625 14.679688 -9.382812 16.421875 -8.25 C 18.171875 -7.125 20.226562 -6.5625 22.59375 -6.5625 Z M 22.59375 -6.5625 "/></g></g></g><g fill="#ffffff" fill-opacity="1"><g transform="translate(167.35963, 132.384907)"><g><path d="M 20.828125 0.921875 C 17.742188 0.921875 14.992188 0.203125 12.578125 -1.234375 C 10.160156 -2.671875 8.253906 -4.75 6.859375 -7.46875 C 5.472656 -10.195312 4.78125 -13.46875 4.78125 -17.28125 L 4.78125 -38.09375 L 12.71875 -38.09375 L 12.71875 -17.359375 C 12.71875 -14.117188 13.601562 -11.484375 15.375 -9.453125 C 17.15625 -7.421875 19.71875 -6.40625 23.0625 -6.40625 C 25.164062 -6.40625 27 -6.914062 28.5625 -7.9375 C 30.132812 -8.96875 31.367188 -10.359375 32.265625 -12.109375 C 33.171875 -13.859375 33.625 -15.785156 33.625 -17.890625 L 33.625 -38.09375 L 41.578125 -38.09375 L 41.578125 0.078125 L 34.390625 0.078125 L 33.9375 -5.25 C 32.082031 -3.082031 30.097656 -1.507812 27.984375 -0.53125 C 25.878906 0.4375 23.492188 0.921875 20.828125 0.921875 Z M 20.828125 0.921875 "/></g></g></g><g fill="#ffffff" fill-opacity="1"><g transform="translate(212.00957, 132.384907)"><g><path d="M 21.984375 0.46875 C 18.023438 0.46875 14.976562 -0.675781 12.84375 -2.96875 C 10.707031 -5.257812 9.640625 -8.585938 9.640625 -12.953125 L 9.640625 -31.234375 L 2.3125 -31.234375 L 2.3125 -38.09375 L 9.640625 -38.09375 L 9.640625 -48.125 L 17.65625 -48.96875 L 17.65625 -38.09375 L 28.765625 -38.09375 L 28.765625 -31.234375 L 17.578125 -31.234375 L 17.578125 -12.953125 C 17.578125 -8.785156 19.40625 -6.703125 23.0625 -6.703125 C 24.707031 -6.703125 26.328125 -7.140625 27.921875 -8.015625 L 30.234375 -1.234375 C 28.796875 -0.617188 27.429688 -0.179688 26.140625 0.078125 C 24.859375 0.335938 23.472656 0.46875 21.984375 0.46875 Z M 21.984375 0.46875 "/></g></g></g><g fill="#ffffff" fill-opacity="1"><g transform="translate(241.08197, 132.384907)"><g><path d="M 5.40625 0 L 5.40625 -38.09375 L 12.796875 -38.09375 L 13.34375 -33.015625 C 14.726562 -35.429688 16.421875 -37.007812 18.421875 -37.75 C 20.429688 -38.5 22.46875 -38.875 24.53125 -38.875 C 26.375 -38.875 28.128906 -38.578125 29.796875 -37.984375 C 31.472656 -37.390625 32.851562 -36.601562 33.9375 -35.625 L 30.3125 -28.6875 C 29.332031 -29.457031 28.34375 -30.035156 27.34375 -30.421875 C 26.34375 -30.804688 25.09375 -31 23.59375 -31 C 20.875 -31 18.484375 -30.140625 16.421875 -28.421875 C 14.367188 -26.703125 13.34375 -24.09375 13.34375 -20.59375 L 13.34375 0 Z M 5.40625 0 "/></g></g></g><g fill="#ffffff" fill-opacity="1"><g transform="translate(272.699205, 132.384907)"><g><path d="M 23.59375 1.078125 C 19.4375 1.078125 15.828125 0.242188 12.765625 -1.421875 C 9.703125 -3.097656 7.320312 -5.4375 5.625 -8.4375 C 3.925781 -11.445312 3.078125 -14.984375 3.078125 -19.046875 C 3.078125 -22.898438 3.910156 -26.316406 5.578125 -29.296875 C 7.253906 -32.285156 9.597656 -34.628906 12.609375 -36.328125 C 15.617188 -38.023438 19.101562 -38.875 23.0625 -38.875 C 26.863281 -38.875 30.203125 -38.148438 33.078125 -36.703125 C 35.960938 -35.265625 38.226562 -33.09375 39.875 -30.1875 C 41.519531 -27.289062 42.34375 -23.65625 42.34375 -19.28125 C 42.34375 -18.769531 42.328125 -18.21875 42.296875 -17.625 C 42.273438 -17.03125 42.238281 -16.453125 42.1875 -15.890625 L 11.34375 -15.890625 C 11.695312 -12.953125 12.976562 -10.625 15.1875 -8.90625 C 17.40625 -7.1875 20.257812 -6.328125 23.75 -6.328125 C 25.707031 -6.328125 27.738281 -6.671875 29.84375 -7.359375 C 31.957031 -8.054688 33.601562 -9.070312 34.78125 -10.40625 L 39.953125 -5.40625 C 37.992188 -3.1875 35.507812 -1.550781 32.5 -0.5 C 29.5 0.550781 26.53125 1.078125 23.59375 1.078125 Z M 11.484375 -22.59375 L 34.546875 -22.59375 C 34.296875 -25.625 33.164062 -27.910156 31.15625 -29.453125 C 29.15625 -31.003906 26.535156 -31.78125 23.296875 -31.78125 C 20.359375 -31.78125 17.8125 -31.003906 15.65625 -29.453125 C 13.5 -27.910156 12.109375 -25.625 11.484375 -22.59375 Z M 11.484375 -22.59375 "/></g></g></g><g fill="#ffffff" fill-opacity="1"><g transform="translate(315.267003, 132.384907)"><g><path d="M 22.59375 1 C 18.894531 1 15.566406 0.226562 12.609375 -1.3125 C 9.648438 -2.851562 7.320312 -5.113281 5.625 -8.09375 C 3.925781 -11.082031 3.078125 -14.734375 3.078125 -19.046875 C 3.078125 -23.316406 3.960938 -26.914062 5.734375 -29.84375 C 7.515625 -32.78125 9.894531 -35.019531 12.875 -36.5625 C 15.863281 -38.101562 19.15625 -38.875 22.75 -38.875 C 25.476562 -38.875 28.023438 -38.269531 30.390625 -37.0625 C 32.753906 -35.851562 34.523438 -34.164062 35.703125 -32 L 35.9375 -38.09375 L 43.65625 -38.09375 L 43.65625 0 L 36.09375 0 L 35.703125 -6.171875 C 34.878906 -4.523438 33.734375 -3.175781 32.265625 -2.125 C 30.804688 -1.070312 29.210938 -0.289062 27.484375 0.21875 C 25.765625 0.738281 24.132812 1 22.59375 1 Z M 23.375 -6.40625 C 26.144531 -6.40625 28.441406 -7.019531 30.265625 -8.25 C 32.097656 -9.488281 33.460938 -11.070312 34.359375 -13 C 35.253906 -14.925781 35.703125 -16.941406 35.703125 -19.046875 C 35.703125 -21.160156 35.253906 -23.164062 34.359375 -25.0625 C 33.460938 -26.96875 32.097656 -28.535156 30.265625 -29.765625 C 28.441406 -31.003906 26.144531 -31.625 23.375 -31.625 C 21.101562 -31.625 19.03125 -31.109375 17.15625 -30.078125 C 15.28125 -29.046875 13.789062 -27.59375 12.6875 -25.71875 C 11.582031 -23.84375 11.03125 -21.617188 11.03125 -19.046875 C 11.03125 -16.472656 11.582031 -14.234375 12.6875 -12.328125 C 13.789062 -10.429688 15.28125 -8.96875 17.15625 -7.9375 C 19.03125 -6.914062 21.101562 -6.40625 23.375 -6.40625 Z M 23.375 -6.40625 "/></g></g></g><g fill="#ffffff" fill-opacity="1"><g transform="translate(361.999103, 132.384907)"><g><path d="M 23.140625 1.078125 C 19.484375 1.078125 16.140625 0.332031 13.109375 -1.15625 C 10.078125 -2.644531 7.644531 -4.878906 5.8125 -7.859375 C 3.988281 -10.847656 3.078125 -14.523438 3.078125 -18.890625 C 3.078125 -23.316406 3.976562 -27.003906 5.78125 -29.953125 C 7.582031 -32.910156 10.007812 -35.132812 13.0625 -36.625 C 16.125 -38.125 19.484375 -38.875 23.140625 -38.875 C 25.765625 -38.875 28.191406 -38.4375 30.421875 -37.5625 C 32.660156 -36.6875 34.804688 -35.242188 36.859375 -33.234375 L 31.859375 -28.078125 C 30.617188 -29.148438 29.238281 -29.957031 27.71875 -30.5 C 26.207031 -31.039062 24.707031 -31.3125 23.21875 -31.3125 C 20.957031 -31.3125 18.898438 -30.796875 17.046875 -29.765625 C 15.191406 -28.742188 13.722656 -27.304688 12.640625 -25.453125 C 11.566406 -23.597656 11.03125 -21.410156 11.03125 -18.890625 C 11.03125 -16.222656 11.582031 -13.972656 12.6875 -12.140625 C 13.789062 -10.316406 15.265625 -8.941406 17.109375 -8.015625 C 18.960938 -7.085938 20.972656 -6.625 23.140625 -6.625 C 24.785156 -6.625 26.390625 -6.894531 27.953125 -7.4375 C 29.523438 -7.976562 30.925781 -8.894531 32.15625 -10.1875 L 37.5625 -4.859375 C 35.40625 -2.753906 33.15625 -1.238281 30.8125 -0.3125 C 28.46875 0.613281 25.910156 1.078125 23.140625 1.078125 Z M 23.140625 1.078125 "/></g></g></g><g fill="#ffffff" fill-opacity="1"><g transform="translate(398.937397, 132.384907)"><g><path d="M 5.40625 0 L 5.40625 -53.984375 L 13.34375 -53.984375 L 13.34375 -32.703125 C 14.988281 -35.015625 16.878906 -36.617188 19.015625 -37.515625 C 21.148438 -38.421875 23.375 -38.875 25.6875 -38.875 C 31.082031 -38.875 35.039062 -37.226562 37.5625 -33.9375 C 40.082031 -30.644531 41.34375 -26.273438 41.34375 -20.828125 L 41.34375 0 L 33.390625 0 L 33.390625 -20.75 C 33.390625 -24.34375 32.53125 -27.023438 30.8125 -28.796875 C 29.09375 -30.578125 26.765625 -31.46875 23.828125 -31.46875 C 21.773438 -31.46875 19.960938 -30.953125 18.390625 -29.921875 C 16.828125 -28.890625 15.59375 -27.523438 14.6875 -25.828125 C 13.789062 -24.140625 13.34375 -22.238281 13.34375 -20.125 L 13.34375 0 Z M 5.40625 0 "/></g></g></g></svg>