<svg width="232" height="52" viewBox="0 0 232 52" fill="none" xmlns="http://www.w3.org/2000/svg">
<path d="M37.5156 0.44031C38.7199 0.352702 39.7686 1.25751 39.8569 2.46163L40.4404 10.4929C40.5272 11.697 39.6217 12.7439 38.4175 12.8316L19.8969 14.1796C18.6927 14.2676 17.787 15.3143 17.874 16.5184L18.2111 21.1568C18.3138 22.3462 19.3522 23.2363 20.5465 23.1501L35.0714 22.0935C36.2759 22.0064 37.3246 22.9123 37.4123 24.1169L37.5781 26.4123C37.5788 26.4205 37.582 26.4294 37.5826 26.4377L38.0576 32.9672C38.1449 34.1715 37.2391 35.218 36.0348 35.3059L21.5119 36.3631C20.3071 36.4508 19.401 37.4992 19.4885 38.704L19.8929 44.2688L19.8893 44.2656L20.1605 47.9891C20.2481 49.194 19.3419 50.2423 18.1371 50.33L4.5141 51.3196C3.30964 51.4072 2.26295 50.5031 2.17479 49.2988L0.20459 22.2141C5.75995 21.2641 9.78987 16.2315 9.37252 10.4941L8.79429 2.5282L37.5156 0.44031Z" fill="#101012"/>
<path d="M67.3566 39.817H55.7376L53.6378 48.5662H40.7589L53.6378 8.66972H70.0863L82.4052 48.5662H69.4564L67.3566 39.817ZM61.4771 17.279L57.3475 32.0476H65.6767L61.7571 17.279H61.4771Z" fill="#101012"/>
<path d="M97.3648 19.4488C97.3648 20.4287 97.8547 21.1986 98.8346 21.7586C99.8612 22.3185 101.448 22.9251 103.594 23.5784C106.161 24.4183 108.26 25.2349 109.894 26.0282C111.574 26.8214 113.02 28.058 114.233 29.7379C115.493 31.4177 116.123 33.6108 116.123 36.3173C116.123 44.9965 110.477 49.3361 99.1846 49.3361C97.3181 49.3361 95.0317 49.1728 92.3252 48.8462C89.6655 48.5195 87.239 48.0996 85.0459 47.5863C85.1392 46.6064 85.3258 45.1832 85.6058 43.3167C85.9325 41.4035 86.2358 39.9803 86.5157 39.047C88.1489 39.2803 90.5987 39.5603 93.8651 39.887C97.1781 40.2136 99.6746 40.3769 101.354 40.3769C102.334 40.3769 102.918 40.3069 103.104 40.1669C103.384 39.9803 103.594 39.677 103.734 39.257C103.921 38.7904 104.014 38.3938 104.014 38.0671C104.014 37.1339 103.571 36.4339 102.684 35.9673C101.798 35.454 100.281 34.8474 98.1347 34.1475C95.5683 33.3542 93.4451 32.5376 91.7653 31.6977C90.0854 30.8578 88.6156 29.5512 87.3557 27.778C86.0958 26.0049 85.4658 23.6717 85.4658 20.7786C85.4658 18.7255 85.9325 16.719 86.8657 14.7592C87.799 12.7527 88.7555 11.3995 89.7355 10.6995C90.4821 10.1863 92.0219 9.6963 94.355 9.22967C96.6882 8.76305 98.8813 8.52974 100.934 8.52974C106.161 8.52974 110.43 9.01969 113.743 9.99961C113.697 10.9329 113.533 12.2161 113.253 13.8493C113.02 15.4825 112.763 16.9757 112.483 18.3289L110.874 18.2589C104.807 17.8389 100.934 17.6289 99.2546 17.6289C98.5547 17.6289 98.158 17.6523 98.0647 17.6989C97.8781 17.7922 97.7147 18.0022 97.5748 18.3289C97.4348 18.6555 97.3648 19.0288 97.3648 19.4488Z" fill="#101012"/>
<path d="M142.016 48.5662H129.417V17.4189H118.148V8.66972H153.285V17.4189H142.016V48.5662Z" fill="#101012"/>
<path d="M193.642 48.5662H180.413L178.033 38.4871C177.94 38.1138 177.777 37.4838 177.543 36.5972C177.357 35.664 177.123 34.9874 176.843 34.5674C176.563 34.1008 176.167 33.7975 175.653 33.6575C174.347 33.7042 172.434 33.7275 169.914 33.7275V48.5662H157.315V9.01969C162.961 8.59973 168.234 8.38975 173.134 8.38975C177.567 8.38975 181.16 8.76305 183.913 9.50965C186.666 10.2096 188.719 11.4461 190.072 13.2193C191.472 14.9458 192.172 17.3256 192.172 20.3587C192.172 23.2051 191.519 25.4449 190.212 27.0781C188.906 28.6646 186.806 29.6212 183.913 29.9478V30.3678C185.546 30.5078 186.899 31.0444 187.972 31.9777C189.092 32.8642 189.839 34.0075 190.212 35.4074L193.642 48.5662ZM169.914 25.8182C170.334 25.8649 171.15 25.8882 172.364 25.8882C175.957 25.8882 178.056 25.5849 178.663 24.9783C179.223 24.4183 179.503 23.1118 179.503 21.0586C179.503 19.1455 178.99 17.8389 177.963 17.139C176.983 16.439 175.35 16.0891 173.064 16.0891C172.55 16.0891 171.5 16.1357 169.914 16.2291V25.8182Z" fill="#101012"/>
<path d="M213.945 8.17977C217.818 8.17977 221.038 8.69306 223.605 9.71963C226.171 10.6995 228.201 12.706 229.694 15.7391C231.187 18.7255 231.934 23.0884 231.934 28.8279C231.934 34.3341 231.211 38.6037 229.764 41.6368C228.317 44.6232 226.288 46.6764 223.675 47.7963C221.108 48.9162 217.888 49.4761 214.015 49.4761C208.416 49.4761 204.123 48.0062 201.137 45.0665C198.15 42.0801 196.657 36.9705 196.657 29.7379C196.657 22.4585 198.104 17.0456 200.997 13.4993C203.89 9.95294 208.206 8.17977 213.945 8.17977ZM214.365 40.4469C216.699 40.4469 218.215 39.537 218.915 37.7171C219.615 35.8506 219.965 32.9342 219.965 28.9679C219.965 24.9083 219.545 21.9219 218.705 20.0087C217.865 18.0489 216.279 17.069 213.945 17.069C212.312 17.069 211.216 17.349 210.656 17.9089C210.236 18.3755 209.862 19.7754 209.536 22.1085C209.256 24.4417 209.116 26.8214 209.116 29.2479C209.116 33.3542 209.512 36.2473 210.306 37.9271C211.146 39.607 212.499 40.4469 214.365 40.4469Z" fill="#101012"/>
</svg>
